<?xml version="1.0" standalone="no"?>
<!DOCTYPE svg PUBLIC "-//W3C//DTD SVG 20010904//EN"
 "http://www.w3.org/TR/2001/REC-SVG-20010904/DTD/svg10.dtd">
<svg version="1.0" xmlns="http://www.w3.org/2000/svg"
 width="261.000000pt" height="261.000000pt" viewBox="0 0 261.000000 261.000000"
 preserveAspectRatio="xMidYMid meet">
<metadata>
Created by potrace 1.14, written by Peter Selinger 2001-2017
</metadata>
<g transform="translate(0.000000,261.000000) scale(0.100000,-0.100000)"
fill="#000000" stroke="none">
<path d="M0 1600 l0 -1010 140 0 140 0 1 48 c0 26 0 417 0 869 l0 821 862 1
c474 0 865 0 870 1 4 0 7 63 7 140 l0 140 -1010 0 -1010 0 0 -1010z"/>
<path d="M2337 1993 c-4 -3 -7 -390 -7 -860 l0 -853 -860 0 -860 0 0 -140 0
-140 1000 0 1000 0 0 1000 0 1000 -133 0 c-74 0 -137 -3 -140 -7z"/>
<path d="M636 1501 l-100 -36 -3 -38 c-3 -42 -7 -41 84 -20 21 5 21 3 21 -144
0 -81 0 -156 1 -165 1 -15 10 -18 50 -18 30 0 50 5 53 13 6 16 3 435 -2 440
-3 2 -50 -13 -104 -32z"/>
<path d="M1046 1533 c-27 -7 -87 -46 -108 -70 -72 -80 -78 -267 -12 -338 70
-75 206 -62 257 24 38 65 20 179 -35 214 -34 23 -87 28 -125 12 -38 -16 -39
-14 -16 26 17 28 75 59 111 59 15 0 18 8 17 38 -1 35 -2 37 -35 39 -19 0 -44
-1 -54 -4z m24 -233 c13 0 32 -56 28 -85 -4 -34 -47 -69 -71 -59 -32 12 -46
58 -39 122 2 15 42 33 60 26 8 -2 17 -4 22 -4z"/>
<path d="M1506 1461 c-59 -183 -126 -399 -126 -410 0 -6 15 -11 34 -11 l34 0
42 133 c23 72 43 137 44 142 2 6 17 54 35 109 17 54 29 101 26 105 -4 3 -20 6
-36 7 -27 0 -30 -4 -53 -75z"/>
<path d="M1884 1526 c-42 -19 -83 -75 -90 -122 -15 -117 70 -203 167 -170 21
8 39 12 39 10 0 -2 -5 -14 -11 -27 -14 -31 -59 -57 -99 -57 -30 0 -31 -1 -28
-42 4 -48 17 -54 84 -33 64 19 113 60 139 117 31 67 31 204 -1 258 -42 72
-124 99 -200 66z m106 -91 c17 -31 17 -100 0 -120 -17 -20 -53 -19 -72 3 -21
24 -23 88 -4 118 22 32 59 32 76 -1z"/>
</g>
</svg>
