<?xml version="1.0" standalone="no"?>
<!DOCTYPE svg PUBLIC "-//W3C//DTD SVG 20010904//EN"
 "http://www.w3.org/TR/2001/REC-SVG-20010904/DTD/svg10.dtd">
<svg version="1.0" xmlns="http://www.w3.org/2000/svg"
 width="700.000000pt" height="700.000000pt" viewBox="0 0 700.000000 700.000000"
 preserveAspectRatio="xMidYMid meet">
<metadata>
Created by potrace 1.14, written by Peter Selinger 2001-2017
</metadata>
<g transform="translate(0.000000,700.000000) scale(0.100000,-0.100000)"
fill="#000000" stroke="none">
<path d="M0 3500 l0 -3500 508 0 509 0 31 49 c18 27 38 60 45 73 6 12 44 75
83 138 120 193 437 717 466 768 l27 49 -290 -1 c-250 -1 -292 1 -298 14 -12
27 -6 4821 6 4828 6 4 802 7 1768 6 l1757 0 27 40 c15 23 43 67 62 100 19 32
41 70 50 85 9 14 80 132 159 261 78 129 151 247 161 262 11 14 19 28 19 31 0
3 38 67 85 143 47 77 85 142 85 147 0 4 -1183 7 -2630 7 l-2630 0 0 -3500z"/>
<path d="M5957 6963 c-13 -21 -146 -240 -296 -488 -150 -247 -284 -467 -297
-487 -43 -67 -58 -63 258 -64 158 0 291 -4 295 -7 9 -9 11 -4807 2 -4827 -6
-13 -211 -15 -1766 -14 -1171 1 -1762 -2 -1771 -9 -7 -6 -51 -74 -98 -151 -47
-78 -90 -150 -97 -161 -7 -10 -23 -37 -36 -60 -14 -22 -86 -141 -161 -265 -75
-124 -158 -261 -185 -305 -27 -44 -55 -90 -63 -102 l-14 -23 2636 0 2636 0 0
3500 0 3500 -510 0 -510 0 -23 -37z"/>
</g>
</svg>
