<?xml version="1.0" standalone="no"?>
<!DOCTYPE svg PUBLIC "-//W3C//DTD SVG 20010904//EN"
 "http://www.w3.org/TR/2001/REC-SVG-20010904/DTD/svg10.dtd">
<svg version="1.0" xmlns="http://www.w3.org/2000/svg"
 width="700.000000pt" height="700.000000pt" viewBox="0 0 700.000000 700.000000"
 preserveAspectRatio="xMidYMid meet">
<metadata>
Created by potrace 1.14, written by Peter Selinger 2001-2017
</metadata>
<g transform="translate(0.000000,700.000000) scale(0.100000,-0.100000)"
fill="#000000" stroke="none">
<path d="M17 6988 c-9 -5 -12 -823 -11 -3485 1 -1913 2 -3482 3 -3488 1 -10
916 -14 925 -4 10 10 266 404 266 409 0 3 -173 5 -385 5 -252 0 -385 3 -386
10 -1 5 -2 1388 -3 3073 -1 2716 1 3062 14 3063 8 1 1090 2 2403 3 l2388 1
134 204 c74 113 132 207 129 210 -7 8 -5464 7 -5477 -1z"/>
<path d="M6077 6992 c-9 -2 -17 -7 -17 -10 0 -4 -58 -95 -129 -202 -71 -107
-128 -197 -126 -200 2 -3 174 -5 384 -5 330 0 380 -2 383 -15 4 -13 2 -6118
-1 -6130 0 -3 -1080 -5 -2398 -5 l-2398 1 -136 -206 c-75 -113 -135 -207 -133
-209 2 -3 1237 -5 2744 -5 2733 -1 2740 -1 2741 19 0 11 2 1583 2 3492 1 2309
-1 3473 -8 3474 -28 3 -894 4 -908 1z"/>
<path d="M2971 4149 c-224 -38 -400 -249 -436 -522 -34 -250 18 -487 138 -623
189 -214 597 -224 802 -19 84 83 125 199 120 333 -8 204 -132 352 -319 380
-141 22 -293 -30 -362 -125 -46 -62 -47 -62 -41 5 16 166 72 257 173 280 77
17 149 -14 189 -83 10 -16 27 -18 150 -18 220 1 199 -4 191 44 -10 60 -59 153
-110 207 -110 116 -309 173 -495 141z m161 -689 c82 -23 135 -106 125 -194
-10 -83 -53 -136 -127 -156 -79 -21 -154 6 -198 72 -48 73 -31 194 33 248 19
16 84 39 110 40 11 0 37 -5 57 -10z"/>
<path d="M4673 4144 c-234 -48 -377 -223 -372 -454 4 -167 91 -305 231 -363
167 -69 382 -11 468 126 24 39 29 24 19 -52 -13 -89 -15 -102 -32 -141 -37
-87 -108 -132 -193 -124 -60 6 -96 28 -122 73 l-21 36 -165 0 c-107 0 -167 -4
-170 -10 -8 -22 43 -156 78 -204 154 -209 490 -257 724 -104 162 107 252 323
250 599 -1 149 -20 249 -70 354 -40 84 -141 186 -221 224 -111 52 -271 68
-404 40z m225 -268 c61 -32 93 -86 93 -161 3 -192 -254 -251 -336 -78 -32 66
-16 159 34 207 55 52 144 66 209 32z"/>
<path d="M1925 4119 c-27 -14 -102 -58 -165 -97 l-115 -71 -3 -145 c-1 -81 1
-146 6 -146 5 0 68 36 141 80 72 44 133 80 136 80 3 0 5 -217 5 -483 l0 -483
175 0 175 1 0 645 0 645 -153 0 c-144 0 -155 -1 -202 -26z"/>
<path d="M3875 3946 c-50 -23 -84 -67 -97 -128 -10 -50 -9 -59 11 -101 82
-169 335 -112 333 75 -2 118 -137 203 -247 154z"/>
<path d="M3912 3339 c-82 -17 -137 -87 -137 -174 1 -182 251 -235 329 -70 36
76 13 167 -55 212 -46 30 -93 42 -137 32z"/>
</g>
</svg>
